<svg width="25" height="25" viewBox="0 0 25 25" fill="none" xmlns="http://www.w3.org/2000/svg">
<path d="M10.52 24.2976C4.82 23.2811 0.5 18.3781 0.5 12.4586C0.5 5.88136 5.9 0.5 12.5 0.5C19.1 0.5 24.5 5.88136 24.5 12.4586C24.5 18.3781 20.18 23.2811 14.48 24.2976L13.82 23.7594H11.18L10.52 24.2976Z" fill="#0966E9"/>
<path d="M17.18 15.7949L17.72 12.4465H14.54V10.1146C14.54 9.15789 14.9 8.44037 16.34 8.44037H17.9V5.39094C17.06 5.27135 16.1 5.15176 15.26 5.15176C12.5 5.15176 10.58 6.82597 10.58 9.81561V12.4465H7.57996V15.7949H10.58V24.3206C11.24 24.4402 11.9 24.5 12.56 24.5C13.22 24.5 13.88 24.4402 14.54 24.3206V15.7949H17.18Z" fill="white"/>
</svg>
