<svg width="24" height="25" viewBox="0 0 24 25" fill="none" xmlns="http://www.w3.org/2000/svg">
<path fill-rule="evenodd" clip-rule="evenodd" d="M23.52 12.7723C23.52 11.9214 23.4436 11.1032 23.3018 10.3178H12V14.9595H18.4582C18.18 16.4595 17.3345 17.7304 16.0636 18.5813V21.5921H19.9418C22.2109 19.5031 23.52 16.4267 23.52 12.7723Z" fill="#0966E9"/>
<path fill-rule="evenodd" clip-rule="evenodd" d="M12 24.5C15.24 24.5 17.9564 23.4255 19.9418 21.5928L16.0636 18.5819C14.9891 19.3019 13.6145 19.7274 12 19.7274C8.87455 19.7274 6.22909 17.6165 5.28546 14.7802H1.27637V17.8892C3.25091 21.811 7.30909 24.5 12 24.5Z" fill="#34A853"/>
<path fill-rule="evenodd" clip-rule="evenodd" d="M5.28545 14.7794C5.04545 14.0594 4.90909 13.2903 4.90909 12.4994C4.90909 11.7085 5.04545 10.9394 5.28545 10.2194V7.11041H1.27636C0.463636 8.73038 0 10.5631 0 12.4994C0 14.4357 0.463636 16.2684 1.27636 17.8884L5.28545 14.7794Z" fill="#FBBC05"/>
<path fill-rule="evenodd" clip-rule="evenodd" d="M12 5.27263C13.7618 5.27263 15.3436 5.87808 16.5873 7.06715L20.0291 3.62539C17.9509 1.68907 15.2345 0.5 12 0.5C7.30909 0.5 3.25091 3.18904 1.27637 7.11078L5.28546 10.2198C6.22909 7.3835 8.87455 5.27263 12 5.27263Z" fill="#EA4335"/>
</svg>
